<?xml version="1.0" encoding="UTF-8"?>
<svg id="Layer_1" data-name="Layer 1" xmlns="http://www.w3.org/2000/svg" xmlns:xlink="http://www.w3.org/1999/xlink" viewBox="0 0 516.602 177.15">
  <defs>
    <style>
      .cls-1 {
        font-size: 8px;
      }

      .cls-1, .cls-2, .cls-3, .cls-4, .cls-5 {
        fill: #231f20;
      }

      .cls-1, .cls-3, .cls-6, .cls-4, .cls-7, .cls-5 {
        font-family: ArialMT, Arial;
      }

      .cls-8 {
        fill: url(#_10_dpi_20_);
        opacity: .3;
      }

      .cls-3, .cls-6 {
        font-size: 9.464px;
      }

      .cls-9, .cls-6, .cls-7 {
        fill: #fff;
      }

      .cls-10, .cls-11, .cls-12 {
        fill: none;
      }

      .cls-13 {
        letter-spacing: -.037em;
      }

      .cls-4, .cls-7 {
        font-size: 10.41px;
      }

      .cls-11, .cls-12 {
        stroke: #231f20;
        stroke-miterlimit: 10;
      }

      .cls-14 {
        fill: #21409a;
      }

      .cls-12 {
        stroke-width: .75px;
      }

      .cls-5 {
        font-size: 12px;
      }

      .cls-15 {
        letter-spacing: -.037em;
      }

      .cls-16 {
        fill: #bcbec0;
      }
    </style>
    <pattern id="_10_dpi_20_" data-name="10 dpi 20%" x="0" y="0" width="28.8" height="28.801" patternTransform="translate(-46.113 -46.594)" patternUnits="userSpaceOnUse" viewBox="0 0 28.8 28.801">
      <g>
        <rect class="cls-10" x="0" y="0" width="28.8" height="28.801"/>
        <g>
          <path class="cls-2" d="M28.8,30.24c.795,0,1.439-.645,1.439-1.439s-.644-1.439-1.439-1.439-1.44.645-1.44,1.439.645,1.439,1.44,1.439Z"/>
          <path class="cls-2" d="M14.399,30.24c.795,0,1.441-.645,1.441-1.439s-.646-1.439-1.441-1.439-1.439.645-1.439,1.439.643,1.439,1.439,1.439Z"/>
          <path class="cls-2" d="M28.8,15.842c.795,0,1.439-.646,1.439-1.441s-.644-1.44-1.439-1.44-1.44.645-1.44,1.44.645,1.441,1.44,1.441Z"/>
          <path class="cls-2" d="M14.399,15.842c.795,0,1.441-.646,1.441-1.441s-.646-1.44-1.441-1.44-1.439.645-1.439,1.44.643,1.441,1.439,1.441Z"/>
          <path class="cls-2" d="M7.199,23.041c.795,0,1.44-.645,1.44-1.439s-.646-1.441-1.44-1.441-1.439.645-1.439,1.441.644,1.439,1.439,1.439Z"/>
          <path class="cls-2" d="M21.6,23.041c.795,0,1.44-.645,1.44-1.439s-.645-1.441-1.44-1.441-1.44.645-1.44,1.441.645,1.439,1.44,1.439Z"/>
          <path class="cls-2" d="M7.199,8.641c.795,0,1.44-.645,1.44-1.44s-.646-1.441-1.44-1.441-1.439.645-1.439,1.441.644,1.44,1.439,1.44Z"/>
          <path class="cls-2" d="M21.6,8.641c.795,0,1.44-.645,1.44-1.44s-.645-1.441-1.44-1.441-1.44.645-1.44,1.441.645,1.44,1.44,1.44Z"/>
        </g>
        <g>
          <path class="cls-2" d="M0,30.24c.795,0,1.439-.645,1.439-1.439s-.645-1.439-1.439-1.439-1.44.645-1.44,1.439.645,1.439,1.44,1.439Z"/>
          <path class="cls-2" d="M0,15.842c.795,0,1.439-.646,1.439-1.441s-.645-1.44-1.439-1.44-1.44.645-1.44,1.44.645,1.441,1.44,1.441Z"/>
        </g>
        <g>
          <path class="cls-2" d="M28.8,1.439c.795,0,1.439-.645,1.439-1.439s-.644-1.439-1.439-1.439-1.44.644-1.44,1.439.645,1.439,1.44,1.439Z"/>
          <path class="cls-2" d="M14.399,1.439c.795,0,1.441-.645,1.441-1.439s-.646-1.439-1.441-1.439-1.439.644-1.439,1.439.643,1.439,1.439,1.439Z"/>
        </g>
        <path class="cls-2" d="M0,1.439c.795,0,1.439-.645,1.439-1.439S.795-1.439,0-1.439-1.44-.795-1.44,0-.796,1.439,0,1.439Z"/>
      </g>
    </pattern>
  </defs>
  <path class="cls-11" d="M409.776,17.128c3.948.035,7.906.56,11.834.122,3.527-.393,6.938-1.553,10.392-2.425,21.268-5.371,43.43.222,64.653,5.8,4.241,1.115,8.64,2.312,12.014,5.323,6.598,5.889,7.163,16.462,7.197,25.749.077,21.48.154,42.96.231,64.439.029,8.08.044,16.279-1.918,24.072-1.962,7.793-6.186,15.267-12.74,19.064-4.787,2.773-10.728,3.605-14.368,7.98-1.091,1.311-1.903,2.873-2.992,4.187-4.277,5.166-11.533,5.357-17.92,5.166-23.307-.697-46.614-1.394-69.922-2.09-1.929-.058-3.922-.131-5.67-1.021-1.982-1.01-3.411-2.944-4.767-4.814-3.602-4.969-7.204-9.938-10.807-14.907-2.853-3.936-5.736-7.923-7.63-12.493-4.029-9.72-3.165-21.009-.948-31.395s5.706-20.497,6.751-31.099c1.38-14.009-3.525-33.125,2.929-46.055,5.607-11.234,23.026-15.696,33.682-15.601Z"/>
  <path class="cls-11" d="M235.93,20.39c-1.784.078-3.776.265-4.946,1.614-2.245,2.587.357,6.996-1.426,9.92-.827,1.356-2.398,2.033-3.871,2.629-5.422,2.193-10.844,4.387-16.267,6.58-3.863,5.506,5.112,13.477,1.647,19.242-.814,1.354-2.187,2.257-3.513,3.114-5.266,3.402-10.533,6.803-15.799,10.205-1.75,1.13-3.574,2.339-4.55,4.18-.741,1.399-.912,3.021-1.055,4.598-.472,5.203-.787,10.42-.945,15.642-.178,5.887-.109,12.002,2.385,17.338,6.857,14.672,28.361,17.14,36.185,31.321,1.009,1.828,1.768,3.826,3.137,5.403,1.643,1.892,4.026,3,6.448,3.643,3.675.976,7.527.996,11.33,1.01,14.371.051,28.743.102,43.114.154,2.325.008,4.696.01,6.91-.702,2.878-.925,5.233-2.964,7.678-4.742,8.482-6.167,18.951-9.553,29.438-9.521,1.268.004,2.611.038,3.707-.601,1.104-.644,1.741-1.849,2.247-3.023,4.303-9.977,3.015-21.658-1.073-31.724-4.089-10.067-10.741-18.847-17.318-27.496-6.05-7.956-12.1-15.912-18.149-23.868-.76-1-1.54-2.041-1.821-3.265-.397-1.732.264-3.505.724-5.221,2.795-10.424-2.88-25.961-14.945-25.849-16.426.152-32.79-1.301-49.27-.579Z"/>
  <path class="cls-16" d="M249.145,46.344c4.782.621,9.258,3.032,14.082,3.057,3.141.016,6.197-.987,9.331-1.185,8.526-.538,16.946,5.783,18.551,13.925.278,1.411.377,2.866.886,4.215.599,1.586,1.725,2.923,2.832,4.227,3.416,4.024,6.832,8.049,10.248,12.073,3.53,4.159,7.249,8.814,7.163,14.201-.048,2.998-1.301,5.982-.722,8.927.536,2.731,2.544,4.923,4.07,7.276,1.526,2.352,2.595,5.44,1.154,7.842-1.002,1.672-3.134,2.879-3.108,4.813.026,1.983,2.31,3.158,3.209,4.939,1.433,2.84-1.242,6.267-4.364,7.174s-6.46.181-9.711-.035c-10.855-.722-21.842,4.321-32.401,1.773-6.748-1.628-12.96-6.295-19.863-5.479-3.218.38-6.737,1.898-9.478.218-1.343-.823-2.137-2.247-2.945-3.574-3.684-6.055-8.818-11.274-14.88-15.126-2.985-1.897-6.215-3.486-8.837-5.835-4.436-3.973-6.759-10.059-6.06-15.877.247-2.056.843-4.055,1.438-6.043,1.174-3.927,2.35-7.862,3.909-11.66,2.246-5.475,5.283-10.644,8.994-15.308,1.479-1.859,3.112-4.444,1.661-6.324-.593-.768-1.565-1.157-2.309-1.792-3.464-2.962,9.088-3.673,11.254-4.2,5.202-1.268,10.462-2.926,15.896-2.22Z"/>
  <g>
    <path class="cls-16" d="M43.053,33.255c-5.337.599-10.719,3.393-12.451,7.93-1.016,2.66-.69,5.592-1.508,8.305-1.665,5.522-7.637,9.121-10.545,14.218-2.349,4.116-2.54,8.907-2.684,13.523-.166,5.312-.287,10.833,2.15,15.684,1.064,2.118,2.59,4.043,3.502,6.216,1.606,3.828,1.179,8.062,1.768,12.115,1.26,8.664,7.087,16.182,12.742,23.319,3.35,4.228,6.928,8.632,12.17,10.861,4.227,1.798,9.075,1.97,13.758,1.895,12.826-.206,25.577-2.029,38.016-4.822,3.308-.743,6.692-1.596,9.381-3.466s4.542-5.01,3.708-7.957c-.444-1.57-1.593-2.949-1.87-4.55-.725-4.2,4.451-7.101,8.824-8.796,7.392-2.866,14.784-5.731,22.176-8.597,1.842-.714,3.753-1.473,5.042-2.845,1.284-1.366,1.79-3.176,2.1-4.936,1.743-9.905-1.839-20.448-9.454-27.83-6.585-6.384-15.712-10.255-25.005-12.831-4.337-1.203-9.02-2.297-12.053-5.308-1.635-1.623-2.63-3.664-3.915-5.521-5.498-7.942-15.544-11.621-25.308-13.722-8.855-1.906-21.575-3.892-30.545-2.886Z"/>
    <path class="cls-12" d="M43.053,33.47c-5.337.599-10.719,3.393-12.451,7.93-1.016,2.66-.69,5.592-1.508,8.305-1.665,5.522-7.637,9.121-10.545,14.218-2.349,4.116-2.54,8.907-2.684,13.523-.166,5.312-.287,10.833,2.15,15.684,1.064,2.118,2.59,4.043,3.502,6.216,1.606,3.828,1.179,8.062,1.768,12.115,1.26,8.664,7.087,16.182,12.742,23.319,3.35,4.228,6.928,8.632,12.17,10.861,4.227,1.798,9.075,1.97,13.758,1.895,12.826-.206,25.577-2.029,38.016-4.822,3.308-.743,6.692-1.596,9.381-3.466s4.542-5.01,3.708-7.957c-.444-1.57-1.593-2.949-1.87-4.55-.725-4.2,4.451-7.101,8.824-8.796,7.392-2.866,14.784-5.731,22.176-8.597,1.842-.714,3.753-1.473,5.042-2.845,1.284-1.366,1.79-3.176,2.1-4.936,1.743-9.905-1.839-20.448-9.454-27.83-6.585-6.384-15.712-10.255-25.005-12.831-4.337-1.203-9.02-2.297-12.053-5.308-1.635-1.623-2.63-3.664-3.915-5.521-5.498-7.942-15.544-11.621-25.308-13.722-8.855-1.906-21.575-3.892-30.545-2.886Z"/>
  </g>
  <ellipse class="cls-14" cx="74.254" cy="88.585" rx="25.895" ry="14.721"/>
  <text class="cls-7" transform="translate(55.145 91.529)"><tspan x="0" y="0">Particles</tspan></text>
  <ellipse class="cls-14" cx="251.927" cy="73.864" rx="25.895" ry="14.721"/>
  <text class="cls-7" transform="translate(232.818 76.808)"><tspan x="0" y="0">Particles</tspan></text>
  <text class="cls-4" transform="translate(42.097 63.466)"><tspan x="0" y="0">Binder</tspan></text>
  <path class="cls-9" d="M241.641,103.23c2.651-1.252,5.668-1.41,8.596-1.547,10.326-.483,20.652-.966,30.978-1.449,3.215-.15,6.516-.289,9.568.733,5.534,1.854,9.394,7.792,8.842,13.602-.21,2.207-.975,4.464-.332,6.585.621,2.049,2.516,3.831,2.142,5.939-.379,2.134-2.827,3.136-4.948,3.582-9.385,1.97-19.482.323-27.753-4.528-1.919-1.125-3.798-2.438-5.974-2.901-2.271-.482-4.619.014-6.938.136-7.122.376-14.334-3.072-18.514-8.852-2.743-3.794.537-9.507,4.333-11.301Z"/>
  <path class="cls-8" d="M241.641,103.23c2.651-1.252,5.668-1.41,8.596-1.547,10.326-.483,20.652-.966,30.978-1.449,3.215-.15,6.516-.289,9.568.733,5.534,1.854,9.394,7.792,8.842,13.602-.21,2.207-.975,4.464-.332,6.585.621,2.049,2.516,3.831,2.142,5.939-.379,2.134-2.827,3.136-4.948,3.582-9.385,1.97-19.482.323-27.753-4.528-1.919-1.125-3.798-2.438-5.974-2.901-2.271-.482-4.619.014-6.938.136-7.122.376-14.334-3.072-18.514-8.852-2.743-3.794.537-9.507,4.333-11.301Z"/>
  <text class="cls-4" transform="translate(222.279 96.703)"><tspan x="0" y="0">Binder</tspan></text>
  <text class="cls-4" transform="translate(236.293 151.841)"><tspan x="0" y="0">Outer gas</tspan></text>
  <text class="cls-3" transform="translate(243.274 113.498)"><tspan class="cls-13" x="0" y="0">T</tspan><tspan x="5.43" y="0">rapped gas</tspan></text>
  <path class="cls-2" d="M202.656,92.205c-.169.78-.338,1.596-.13,2.367.256.945,1.033,1.656,1.43,2.551.624,1.406.234,3.03.334,4.565.272,4.208,4.039,7.164,6.818,10.336,3.013,3.44,5.082,7.619,8.053,11.096s7.332,6.325,11.856,5.65c1.025-2.087.546-4.657-.624-6.667s-2.943-3.584-4.653-5.159c-1.715-1.58-3.395-3.197-5.041-4.849-5.014-5.036-9.985-11.13-9.855-18.236.044-2.416,1.505-10.396-3.048-10.468-3.498-.055-4.604,6.342-5.141,8.814Z"/>
  <path class="cls-2" d="M253.474,33.046c.823-.572,1.631-1.173,2.524-1.628,2.515-1.282,5.463-1.292,8.286-1.274,3.902.025,7.804.05,11.706.074.86.005,1.766.023,2.507.46,1.199.707,1.567,2.24,1.824,3.608.073.39.145.804,0,1.173-.286.737-1.23.918-2.019.969-7.115.463-14.358-.667-21.335.796-3.051.64-10.266,3.802-12.338.802,2.883-1.718,6.035-3.03,8.844-4.981Z"/>
  <path class="cls-2" d="M323.757,124.146c.931,2.53,2.415,4.856,4.319,6.765.293.294.725.597,1.084.39.293-.169.329-.57.331-.909.046-6.888.472-13.773,1.275-20.614.501-4.268-1.861-15.204-7.359-7.796-3.294,4.438-1.432,17.318.351,22.164Z"/>
  <path class="cls-2" d="M292.302,120.306c2.372-.81,4.949-.679,7.452-.537.648.037,1.314.078,1.902.353,1.22.572,1.781,1.977,2.139,3.276.848,3.076.847,7.045-1.888,8.688-2.535,1.523-5.905.086-8.707,1.033-.602.204-1.166.514-1.775.696-.713.213-1.467.242-2.211.264-4.253.127-8.512.069-12.761-.173-3.698-.21-7.555-.616-10.66-2.636-2.11-1.373-5.776-6.078-3.946-8.881,1.58-2.419,8.305-1.614,10.853-1.304,7.247.883,12.501,1.645,19.602-.78Z"/>
  <text class="cls-6" transform="translate(273.285 130.388)"><tspan x="0" y="0">solid</tspan></text>
  <path class="cls-2" d="M423.571,44.783c.823-.572,1.631-1.173,2.524-1.628,2.515-1.282,5.463-1.292,8.286-1.274,3.902.025,7.804.05,11.706.074.86.005,1.766.023,2.507.46,1.199.707,1.567,2.24,1.824,3.608.073.39.145.804,0,1.173-.286.737-1.23.918-2.019.969-7.115.463-14.358-.667-21.335.796-3.051.64-10.266,3.802-12.338.802,2.883-1.718,6.035-3.03,8.844-4.981Z"/>
  <path class="cls-2" d="M438.208,64.855c-9.822-2.738-20.766,1.83-30.35-1.64-2.086-.755-4.246-1.897-6.402-1.37-2.58.631-4.011,3.427-4.404,6.036s-.096,5.319-.824,7.856c-.58,2.019-1.773,3.799-2.724,5.674-3.954,7.798-3.483,17.634,1.198,25.024,2.012,3.176,4.77,5.994,5.814,9.599.6,2.072.586,4.263.623,6.419.075,4.399.381,8.795.916,13.163.636,5.192,1.905,10.864,6.146,13.966,7.136,5.218,17.743.02,25.907,3.442,2.014.844,3.775,2.179,5.69,3.226,7.606,4.156,18.853,2.389,22.625-5.376,4.216-8.679-2.403-18.86-1.328-28.437.136-1.21.392-2.462.015-3.62-.42-1.289-1.542-2.209-2.633-3.022-5.694-4.242-12.041-7.619-18.752-9.978-2.957-1.039-6.042-1.911-8.589-3.729s-4.489-4.872-3.958-7.941c.56-3.237,3.552-5.424,6.353-7.172,3.602-2.248,16.865-6.838,17.985-10.797,1.458-5.152-9.52-10.265-13.308-11.322Z"/>
  <text class="cls-5" transform="translate(352.845 10.298)"><tspan x="0" y="0">c</tspan></text>
  <text class="cls-5" transform="translate(169.528 10.298)"><tspan x="0" y="0">b</tspan></text>
  <text class="cls-5" transform="translate(0 10.298)"><tspan x="0" y="0">a</tspan></text>
  <path class="cls-2" d="M458.874,69.588c1.101,1.471,2.761,2.398,4.353,3.316,5.487,3.165,10.9,6.87,14.34,12.188s4.498,12.598,1.119,17.956c-1.594,2.528-4.073,4.529-5.076,7.344-1.275,3.577.156,7.546,2.044,10.84s4.285,6.407,5.15,10.104c.816,3.487.182,7.171.835,10.692,1.096,5.906,5.584,10.512,9.86,14.731.657.648,1.353,1.32,2.241,1.572,1.967.559,3.951-1.298,4.334-3.307s-.346-4.043-1.026-5.972c-3.587-10.17-6.142-20.705-7.611-31.389-.259-1.884-.475-3.857.184-5.641,1.303-3.523,5.355-4.975,8.653-6.773,7.822-4.265,13.237-13.907,10.262-22.304-2.285-6.449-8.721-10.712-11.149-17.108-.483-1.273-.809-2.633-1.595-3.745-.79-1.119-1.976-1.886-3.153-2.588-4.707-2.809-9.859-5.065-15.311-5.633-6.375-.665-25.871,5.81-18.454,15.715Z"/>
  <g>
    <path class="cls-9" d="M420.477,106.251c-2.612.889-4.32,2.951-5.727,4.968-1.747,2.505-3.241,5.745-1.266,8.133.456.552,1.068,1.005,1.548,1.542.624.698,1.01,1.517,1.39,2.325.88,1.876,1.761,3.751,2.641,5.627.407.868.84,1.767,1.666,2.402.631.485,1.441.775,2.233,1.056,3.1,1.099,6.579,2.213,9.752,1.265,2.049-.612,3.596-1.99,5.058-3.32,2.287-2.08,4.618-4.217,5.91-6.813,1.537-3.089,1.463-6.537,1.366-9.874-.166-5.702-3.271-4.239-7.909-4.809-5.259-.647-11.293-4.33-16.662-2.502Z"/>
    <path class="cls-9" d="M475.115,64.006c-1.233,3.667,2.383,7.088,4.114,10.617,1.447,2.95,1.584,6.218,2.629,9.28,1.233,3.614,3.693,6.848,6.122,10.025.652.853,1.325,1.725,2.3,2.333,2.134,1.33,5.336,1.031,7.469-.301s3.314-3.483,3.816-5.648c1.161-5.01-.926-10.176-3.934-14.635-3.661-5.426-15.139-10.89-22.515-11.671Z"/>
    <path class="cls-8" d="M420.477,103.813c-2.612.889-4.32,2.951-5.727,4.968-1.747,2.505-3.241,5.745-1.266,8.133.456.552,1.068,1.005,1.548,1.542.624.698,1.01,1.517,1.39,2.325.88,1.876,1.761,3.751,2.641,5.627.407.868.84,1.767,1.666,2.402.631.485,1.441.775,2.233,1.056,3.1,1.099,6.579,2.213,9.752,1.265,2.049-.612,3.596-1.99,5.058-3.32,2.287-2.08,4.618-4.217,5.91-6.813,1.537-3.089,1.463-6.537,1.366-9.874-.166-5.702-3.271-4.239-7.909-4.809-5.259-.647-11.293-4.33-16.662-2.502Z"/>
    <path class="cls-8" d="M475.115,61.567c-1.233,3.667,2.383,7.088,4.114,10.617,1.447,2.95,1.584,6.218,2.629,9.28,1.233,3.614,3.693,6.848,6.122,10.025.652.853,1.325,1.725,2.3,2.333,2.134,1.33,5.336,1.031,7.469-.301s3.314-3.483,3.816-5.648c1.161-5.01-.926-10.176-3.934-14.635-3.661-5.426-15.139-10.89-22.515-11.671Z"/>
  </g>
  <g>
    <ellipse class="cls-14" cx="444.506" cy="97.001" rx="25.895" ry="14.721"/>
    <text class="cls-7" transform="translate(425.397 99.946)"><tspan x="0" y="0">Particles</tspan></text>
  </g>
  <text class="cls-6" transform="translate(401.597 81.059)"><tspan x="0" y="0">solid</tspan></text>
  <text class="cls-1" transform="translate(413.975 119.663)"><tspan class="cls-15" x="0" y="0">T</tspan><tspan x="4.59" y="0">rapped</tspan><tspan x="8.301" y="8">gas</tspan></text>
  <text class="cls-1" transform="translate(483.159 69.058) rotate(63.596)"><tspan class="cls-15" x="0" y="0">T</tspan><tspan x="4.59" y="0">rapped</tspan><tspan x="8.301" y="6">gas</tspan></text>
  <text class="cls-5" transform="translate(450.467 34.687) rotate(5.098)"><tspan x="0" y="0">Outer gas</tspan></text>
</svg>