<?xml version="1.0" encoding="UTF-8"?>
<svg id="Layer_1" data-name="Layer 1" xmlns="http://www.w3.org/2000/svg" xmlns:xlink="http://www.w3.org/1999/xlink" viewBox="0 0 279.104 210.992">
  <defs>
    <style>
      .cls-1 {
        fill: url(#_10_dpi_20_);
        opacity: .3;
      }

      .cls-2, .cls-3, .cls-4, .cls-5 {
        fill: #231f20;
      }

      .cls-6, .cls-7, .cls-8, .cls-9, .cls-10 {
        fill: #fff;
      }

      .cls-3, .cls-4, .cls-7, .cls-8, .cls-9, .cls-5 {
        font-family: ArialMT, Arial;
      }

      .cls-3, .cls-7 {
        font-size: 12.888px;
      }

      .cls-11 {
        fill: url(#_10_dpi_10_);
        opacity: .5;
      }

      .cls-4 {
        font-size: 14.98px;
      }

      .cls-12, .cls-13 {
        fill: none;
      }

      .cls-13 {
        stroke-dasharray: 8.171;
      }

      .cls-13, .cls-10 {
        stroke: #231f20;
        stroke-miterlimit: 10;
        stroke-width: 1.362px;
      }

      .cls-8, .cls-5 {
        font-size: 14.177px;
      }

      .cls-9 {
        font-size: 12.888px;
      }

      .cls-14 {
        fill: #21409a;
      }

      .cls-15 {
        fill: #d0edfc;
      }

      .cls-16 {
        fill: #bcbec0;
      }

      .cls-17 {
        fill: #d1ecfb;
      }
    </style>
    <pattern id="_10_dpi_10_" data-name="10 dpi 10%" x="0" y="0" width="28.8" height="28.8" patternTransform="translate(-83.644 -43.023)" patternUnits="userSpaceOnUse" viewBox="0 0 28.8 28.8">
      <g>
        <rect class="cls-12" width="28.8" height="28.8"/>
        <g>
          <circle class="cls-2" cx="28.8" cy="28.8" r=".72"/>
          <path class="cls-2" d="M14.4,29.52c.398,0,.72-.323.72-.72s-.322-.72-.72-.72-.72.321-.72.72.322.72.72.72Z"/>
          <path class="cls-2" d="M28.8,15.12c.396,0,.72-.323.72-.721s-.323-.72-.72-.72-.72.321-.72.72.321.721.72.721Z"/>
          <path class="cls-2" d="M14.4,15.12c.398,0,.72-.323.72-.721s-.322-.72-.72-.72-.72.321-.72.72.322.721.72.721Z"/>
          <path class="cls-2" d="M7.2,22.319c.397,0,.72-.322.72-.72s-.323-.72-.72-.72-.72.321-.72.72.322.72.72.72Z"/>
          <path class="cls-2" d="M21.6,22.319c.398,0,.72-.322.72-.72s-.322-.72-.72-.72-.72.321-.72.72.321.72.72.72Z"/>
          <path class="cls-2" d="M7.2,7.919c.397,0,.72-.322.72-.719,0-.399-.323-.721-.72-.721s-.72.322-.72.721c0,.396.322.719.72.719Z"/>
          <path class="cls-2" d="M21.6,7.919c.398,0,.72-.322.72-.719,0-.399-.322-.721-.72-.721s-.72.322-.72.721c0,.396.321.719.72.719Z"/>
        </g>
        <g>
          <circle class="cls-2" cx="0" cy="28.8" r=".72"/>
          <path class="cls-2" d="M0,15.12c.396,0,.72-.323.72-.721s-.323-.72-.72-.72-.72.321-.72.72.321.721.72.721Z"/>
        </g>
        <g>
          <path class="cls-2" d="M28.8.72c.396,0,.72-.323.72-.72,0-.398-.323-.72-.72-.72s-.72.321-.72.72c0,.397.321.72.72.72Z"/>
          <path class="cls-2" d="M14.4.72c.398,0,.72-.323.72-.72,0-.398-.322-.72-.72-.72s-.72.321-.72.72c0,.397.322.72.72.72Z"/>
        </g>
        <path class="cls-2" d="M0,.72c.396,0,.72-.323.72-.72,0-.398-.323-.72-.72-.72s-.72.321-.72.72c0,.397.321.72.72.72Z"/>
      </g>
    </pattern>
    <pattern id="_10_dpi_20_" data-name="10 dpi 20%" x="0" y="0" width="28.8" height="28.801" patternTransform="translate(-83.644 -43.023)" patternUnits="userSpaceOnUse" viewBox="0 0 28.8 28.801">
      <g>
        <rect class="cls-12" x="0" y="0" width="28.8" height="28.801"/>
        <g>
          <path class="cls-2" d="M28.8,30.24c.795,0,1.439-.645,1.439-1.439s-.644-1.439-1.439-1.439-1.44.645-1.44,1.439.645,1.439,1.44,1.439Z"/>
          <path class="cls-2" d="M14.399,30.24c.795,0,1.441-.645,1.441-1.439s-.646-1.439-1.441-1.439-1.439.645-1.439,1.439.643,1.439,1.439,1.439Z"/>
          <path class="cls-2" d="M28.8,15.842c.795,0,1.439-.646,1.439-1.441s-.644-1.44-1.439-1.44-1.44.645-1.44,1.44.645,1.441,1.44,1.441Z"/>
          <path class="cls-2" d="M14.399,15.842c.795,0,1.441-.646,1.441-1.441s-.646-1.44-1.441-1.44-1.439.645-1.439,1.44.643,1.441,1.439,1.441Z"/>
          <path class="cls-2" d="M7.199,23.041c.795,0,1.44-.645,1.44-1.439s-.646-1.441-1.44-1.441-1.439.645-1.439,1.441.644,1.439,1.439,1.439Z"/>
          <path class="cls-2" d="M21.6,23.041c.795,0,1.44-.645,1.44-1.439s-.645-1.441-1.44-1.441-1.44.645-1.44,1.441.645,1.439,1.44,1.439Z"/>
          <path class="cls-2" d="M7.199,8.641c.795,0,1.44-.645,1.44-1.44s-.646-1.441-1.44-1.441-1.439.645-1.439,1.441.644,1.44,1.439,1.44Z"/>
          <path class="cls-2" d="M21.6,8.641c.795,0,1.44-.645,1.44-1.44s-.645-1.441-1.44-1.441-1.44.645-1.44,1.441.645,1.44,1.44,1.44Z"/>
        </g>
        <g>
          <path class="cls-2" d="M0,30.24c.795,0,1.439-.645,1.439-1.439s-.645-1.439-1.439-1.439-1.44.645-1.44,1.439.645,1.439,1.44,1.439Z"/>
          <path class="cls-2" d="M0,15.842c.795,0,1.439-.646,1.439-1.441s-.645-1.44-1.439-1.44-1.44.645-1.44,1.44.645,1.441,1.44,1.441Z"/>
        </g>
        <g>
          <path class="cls-2" d="M28.8,1.439c.795,0,1.439-.645,1.439-1.439s-.644-1.439-1.439-1.439-1.44.644-1.44,1.439.645,1.439,1.44,1.439Z"/>
          <path class="cls-2" d="M14.399,1.439c.795,0,1.441-.645,1.441-1.439s-.646-1.439-1.441-1.439-1.439.644-1.439,1.439.643,1.439,1.439,1.439Z"/>
        </g>
        <path class="cls-2" d="M0,1.439c.795,0,1.439-.645,1.439-1.439S.795-1.439,0-1.439-1.44-.795-1.44,0-.796,1.439,0,1.439Z"/>
      </g>
    </pattern>
  </defs>
  <path class="cls-15" d="M54.787,2.565c-3.661.055-7.453.139-10.76,1.712-9.58,4.559-9.848,17.979-15.542,26.931-6.045,9.505-18.354,13.821-23.796,23.683-2.785,5.047-3.423,10.973-3.737,16.728-1.837,33.616,5.69,67.695,21.514,97.409,3.967,7.448,9.03,15.123,16.97,17.98,4.021,1.447,8.391,1.494,12.665,1.521,58.762.381,117.528.253,176.288-.384,1.343-5.733,7.755-8.391,13.187-10.665,11.746-4.919,22.922-12.375,29.44-23.316,7.452-12.51,7.937-27.976,6.221-42.436-3.494-29.447-15.119-57.317-28.494-83.783-2.112-4.18-4.306-8.387-7.443-11.863-6.102-6.762-15.241-10.106-24.286-11.169s-18.187-.094-27.279.433c-20.24,1.174-40.608.144-60.627-3.065-12.983-2.081-23.2-2.058-36.032-.364-12.317,1.626-25.788.46-38.287.647Z"/>
  <path class="cls-11" d="M55.833,2.565c-3.661.055-7.453.139-10.76,1.712-9.58,4.559-9.848,17.979-15.542,26.931-6.045,9.505-18.354,13.821-23.796,23.683-2.785,5.047-3.423,10.973-3.737,16.728-1.837,33.616,5.69,67.695,21.514,97.409,3.967,7.448,9.03,15.123,16.97,17.98,4.021,1.447,8.391,1.494,12.665,1.521,58.762.381,117.528.253,176.288-.384,1.343-5.733,7.755-8.391,13.187-10.665,11.746-4.919,22.922-12.375,29.44-23.316,7.452-12.51,7.937-27.976,6.221-42.436-3.494-29.447-15.119-57.317-28.494-83.783-2.112-4.18-4.306-8.387-7.443-11.863-6.102-6.762-15.241-10.106-24.286-11.169s-18.187-.094-27.279.433c-20.24,1.174-40.608.144-60.627-3.065-12.983-2.081-23.2-2.058-36.032-.364-12.317,1.626-25.788.46-38.287.647Z"/>
  <path class="cls-13" d="M54.787,2.565c-3.661.055-7.453.139-10.76,1.712-9.58,4.559-9.848,17.979-15.542,26.931-6.045,9.505-18.354,13.821-23.796,23.683-2.785,5.047-3.423,10.973-3.737,16.728-1.837,33.616,5.69,67.695,21.514,97.409,3.967,7.448,9.03,15.123,16.97,17.98,4.021,1.447,8.391,1.494,12.665,1.521,58.762.381,117.528.253,176.288-.384,1.343-5.733,7.755-8.391,13.187-10.665,11.746-4.919,22.922-12.375,29.44-23.316,7.452-12.51,7.937-27.976,6.221-42.436-3.494-29.447-15.119-57.317-28.494-83.783-2.112-4.18-4.306-8.387-7.443-11.863-6.102-6.762-15.241-10.106-24.286-11.169-9.045-1.063-18.187-.094-27.279.433-20.24,1.174-40.608.144-60.627-3.065-12.983-2.081-23.2-2.058-36.032-.364-12.317,1.626-25.788.46-38.287.647Z"/>
  <rect class="cls-10" x="48.669" y="14.31" width="166.735" height="161.406"/>
  <path class="cls-16" d="M114.538,40.272c6.541.844,12.664,4.119,19.263,4.153,4.296.022,8.477-1.342,12.764-1.61,11.662-.731,23.179,7.857,25.375,18.92.38,1.916.516,3.894,1.212,5.727.819,2.155,2.36,3.971,3.874,5.743,4.673,5.468,9.345,10.936,14.018,16.404,4.829,5.651,9.916,11.975,9.799,19.296-.065,4.073-1.779,8.128-.988,12.13.734,3.71,3.479,6.69,5.567,9.886,2.088,3.196,3.549,7.391,1.579,10.655-1.371,2.271-4.286,3.912-4.252,6.539.035,2.694,3.16,4.291,4.389,6.711,1.96,3.859-1.699,8.515-5.969,9.747-4.27,1.232-8.836.246-13.284-.048-14.848-.981-29.878,5.871-44.321,2.409-9.231-2.213-17.728-8.553-27.17-7.445-4.402.517-9.215,2.578-12.965.297-1.837-1.118-2.923-3.053-4.028-4.857-5.04-8.227-12.062-15.318-20.354-20.552-4.083-2.578-8.501-4.736-12.088-7.927-6.067-5.398-9.245-13.667-8.29-21.572.338-2.794,1.154-5.51,1.966-8.211,1.606-5.336,3.215-10.682,5.347-15.843,3.073-7.439,7.227-14.462,12.303-20.799,2.023-2.526,4.257-6.037,2.272-8.592-.811-1.044-2.141-1.571-3.158-2.434-4.739-4.024,12.431-4.99,15.394-5.707,7.115-1.722,14.31-3.976,21.743-3.017Z"/>
  <ellipse class="cls-14" cx="130.7" cy="76.82" rx="35.265" ry="20.048"/>
  <text class="cls-8" transform="translate(104.677 80.83)"><tspan x="0" y="0">Particles</tspan></text>
  <path class="cls-6" d="M102.198,106.087c4.226-2.181,9.035-2.456,13.704-2.695,16.462-.841,32.924-1.682,49.386-2.523,5.125-.262,10.388-.504,15.253,1.277,8.822,3.229,14.976,13.569,14.097,23.687-.334,3.843-1.555,7.773-.53,11.468.99,3.569,4.012,6.671,3.415,10.342-.604,3.715-4.507,5.462-7.888,6.237-14.961,3.431-31.058.562-44.245-7.885-3.059-1.96-6.054-4.246-9.524-5.051-3.621-.84-7.364.024-11.061.237-11.355.655-22.852-5.35-29.515-15.415-4.373-6.606.856-16.556,6.908-19.679Z"/>
  <path class="cls-1" d="M101.603,106.434c4.256-2.011,9.099-2.264,13.801-2.484,16.578-.775,33.156-1.551,49.735-2.326,5.161-.241,10.462-.464,15.361,1.177,8.885,2.977,15.082,12.51,14.196,21.839-.336,3.543-1.566,7.167-.533,10.573.997,3.29,4.04,6.15,3.439,9.535-.608,3.426-4.539,5.035-7.944,5.75-15.067,3.163-31.277.518-44.558-7.27-3.081-1.807-6.097-3.915-9.591-4.657-3.647-.775-7.416.022-11.139.219-11.435.604-23.014-4.933-29.723-14.212-4.404-6.091.862-15.264,6.957-18.143Z"/>
  <text class="cls-5" transform="translate(84.889 56.772)"><tspan x="0" y="0">Binder</tspan></text>
  <text class="cls-3" transform="translate(117.775 117.714)"><tspan x="0" y="0">close pore</tspan><tspan x="1.8" y="15.465">(with gas)</tspan></text>
  <path class="cls-2" d="M54.226,84.702c-.31,1.702-.618,3.484-.237,5.165.468,2.061,1.889,3.615,2.615,5.567,1.141,3.068.429,6.614.61,9.964.498,9.185,7.386,15.636,12.466,22.56,5.51,7.509,9.293,16.629,14.725,24.219,5.432,7.59,13.407,13.804,21.679,12.332,1.874-4.555.998-10.165-1.14-14.551-2.139-4.386-5.381-7.822-8.508-11.261-3.135-3.448-6.209-6.977-9.217-10.583-9.169-10.991-18.257-24.292-18.019-39.802.081-5.273,2.752-22.69-5.574-22.848-6.397-.121-8.419,13.843-9.4,19.238Z"/>
  <path class="cls-2" d="M169.947,140.067c3.231-1.103,6.74-.924,10.149-.732.882.05,1.79.106,2.59.481,1.662.779,2.425,2.693,2.913,4.462,1.155,4.189,1.154,9.594-2.571,11.831-3.453,2.074-8.042.118-11.857,1.407-.82.277-1.588.701-2.417.948-.972.29-1.998.33-3.011.36-5.792.173-11.592.094-17.378-.235-5.036-.287-10.289-.838-14.517-3.59-2.873-1.87-7.866-8.278-5.374-12.094,2.151-3.294,11.31-2.198,14.78-1.775,9.869,1.202,17.024,2.24,26.694-1.063Z"/>
  <text class="cls-7" transform="translate(144.049 153.797)"><tspan x="0" y="0">solid</tspan></text>
  <text class="cls-4" transform="translate(63.295 206.128)"><tspan x="0" y="0">Control mass boundary</tspan></text>
  <text class="cls-4" transform="translate(243.886 58.024) rotate(90)"><tspan x="0" y="0">gas leaving</tspan><tspan x="11.246" y="17.977">element</tspan></text>
  <text class="cls-3" transform="translate(99.862 30.737)"><tspan x="0" y="0">open pore (no gas)</tspan></text>
  <rect class="cls-17" x="79.387" y="8.146" width="71.724" height="5.145"/>
  <rect class="cls-17" x="81.859" y="176.964" width="121.506" height="9.533"/>
  <text class="cls-9" transform="translate(79.438 133.129) rotate(58.738)"><tspan x="0" y="0">solid</tspan></text>
</svg>